<svg width="136" height="51" viewBox="0 0 136 51" fill="none" xmlns="http://www.w3.org/2000/svg">
<rect width="136" height="51" fill="#242424"/>
<path d="M25.1854 11.6973C25.25 11.3484 25.75 11.3484 25.8146 11.6973L27.2221 19.2899C27.2684 19.5394 27.5729 19.6384 27.757 19.4637L33.3585 14.1484C33.6159 13.9042 34.0203 14.198 33.8676 14.5183L30.5435 21.4881C30.4342 21.7172 30.6224 21.9763 30.874 21.9431L38.5299 20.9355C38.8817 20.8892 39.0362 21.3646 38.7244 21.534L31.9384 25.2188C31.7153 25.3399 31.7153 25.6601 31.9384 25.7812L38.7244 29.466C39.0362 29.6354 38.8817 30.1108 38.5299 30.0645L30.874 29.0569C30.6224 29.0237 30.4342 29.2828 30.5435 29.5119L33.8676 36.4817C34.0203 36.802 33.6159 37.0958 33.3585 36.8516L27.757 31.5363C27.5729 31.3616 27.2684 31.4606 27.2221 31.7101L25.8146 39.3027C25.75 39.6516 25.25 39.6516 25.1854 39.3027L23.7779 31.7101C23.7316 31.4606 23.4271 31.3616 23.243 31.5363L17.6415 36.8516C17.3841 37.0958 16.9797 36.802 17.1324 36.4817L20.4565 29.5119C20.5658 29.2828 20.3776 29.0237 20.126 29.0569L12.4701 30.0645C12.1183 30.1108 11.9638 29.6354 12.2756 29.466L19.0616 25.7812C19.2847 25.6601 19.2847 25.3399 19.0616 25.2188L12.2756 21.534C11.9638 21.3646 12.1183 20.8892 12.4701 20.9355L20.126 21.9431C20.3776 21.9763 20.5658 21.7172 20.4565 21.4881L17.1324 14.5183C16.9797 14.198 17.3841 13.9042 17.6415 14.1484L23.243 19.4637C23.4271 19.6384 23.7316 19.5394 23.7779 19.2899L25.1854 11.6973Z" fill="white"/>
<path d="M51.072 18.2C52.728 18.2 54.288 18.848 55.416 20C56.568 21.128 57.216 22.688 57.216 24.344C57.216 25.976 56.568 27.488 55.416 28.664C54.288 29.84 52.728 30.44 51.072 30.44H48.96V34.952H46.44V18.2H51.072ZM51.072 27.92C53.064 27.92 54.72 26.336 54.72 24.344C54.72 22.352 53.064 20.696 51.072 20.696H48.96V27.92H51.072ZM58.6744 18.2H61.2424L61.2184 32.768H63.0424L64.6984 18.2H71.3944V35H68.7544V20.456H66.9544L65.3704 35H58.6744V18.2ZM73.5572 35V18.2H81.7892V20.672H76.0772V35H73.5572ZM98.547 30.128C97.179 33.32 94.011 35.552 90.315 35.552C85.347 35.552 81.339 31.544 81.339 26.576C81.339 21.608 85.347 17.6 90.315 17.6C95.283 17.6 99.291 21.608 99.291 26.576C99.291 26.864 99.267 27.152 99.243 27.416H83.931C84.099 28.832 84.747 30.128 85.755 31.136C86.979 32.36 88.587 33.032 90.315 33.032C92.043 33.032 93.651 32.36 94.875 31.136C95.235 30.752 95.571 30.344 95.835 29.912L98.547 30.128ZM90.315 20.12C88.587 20.12 86.979 20.792 85.755 22.016C84.939 22.832 84.363 23.864 84.075 24.944H96.555C96.267 23.864 95.691 22.832 94.875 22.016C93.651 20.792 92.043 20.12 90.315 20.12ZM102.37 35H99.6816L102.898 18.2H111.226V35H108.754V20.672H105.106L102.37 35ZM124.202 28.856C124.202 30.488 123.554 32.024 122.402 33.2C121.25 34.352 119.69 35 118.058 35H113.378V18.2H115.922V22.688H118.058C119.69 22.688 121.25 23.336 122.402 24.488C123.554 25.664 124.202 27.2 124.202 28.856ZM118.058 32.456C120.05 32.456 121.682 30.848 121.682 28.856C121.682 26.864 120.05 25.232 118.058 25.232H115.922V32.456H118.058Z" fill="white"/>
</svg>
